:FULLY-SPECIFIED
:FORCE-ALL-JOINTS-BE-3DOF
:DEGREES
883
root 3.80531 16.4771 30.5182 -7.95344 19.8783 359.692
lfemur -19.4464 15.9947 -18.0051
ltibia 42.0843 0 0
lfoot -10.2216 -13.3026 0
ltoes 16.6147 0 0
rfemur -42.6788 -6.59325 1.76542
rtibia 69.8801 0 0
rfoot 6.78766 -11.6342 0
rtoes 18.6123 0 0
lowerback 8.30766 -1.81975 -3.89897
upperback 2.29179 -2.78226 -1.6252
thorax -2.15187 -1.37324 0.770521
lowerneck -6.7163 -5.0208 0.233413
upperneck 6.28368 -7.05499 4.09306
head 3.41077 -3.32188 0.937379
lclavicle 1.66015e-14 -4.42174e-15 0
lhumerus -44.1669 -29.8536 95.6526
lradius 58.2157 0 0
lwrist 17.7676 0 0
lhand 18.8684 10.7267 0
lfingers 7.12502 0 0
lthumb 43.3341 33.6864 0
rclavicle 1.66015e-14 -4.42174e-15 0
rhumerus -47.4211 6.61498 -74.0688
rradius 83.6527 0 0
rwrist -4.05592 0 0
rhand 0.41789 -17.0372 0
rfingers 7.12502 0 0
rthumb 25.9251 -764.624 0
884
root 3.79638 16.4718 30.5803 -7.61284 19.971 359.729
lfemur -19.7668 16.4734 -17.9443
ltibia 42.4574 0 0
lfoot -10.4885 -12.6633 0
ltoes 16.2936 0 0
rfemur -41.8926 -6.86507 1.61976
rtibia 70.3282 0 0
rfoot 6.70516 -12.1724 0
rtoes 19.6161 0 0
lowerback 8.08978 -1.83962 -3.87605
upperback 2.20113 -2.79986 -1.65297
thorax -2.12722 -1.38179 0.724537
lowerneck -6.7308 -5.09984 0.13115
upperneck 6.19542 -7.15104 4.13786
head 3.3915 -3.37181 0.964957
lclavicle 1.64212e-14 -3.72357e-15 0
lhumerus -44.5303 -30.2541 96.3637
lradius 58.3515 0 0
lwrist 17.5274 0 0
lhand 19.429 11.0307 0
lfingers 7.12502 0 0
lthumb 43.8564 33.7917 0
rclavicle 1.64212e-14 -3.72357e-15 0
rhumerus -47.3073 6.90797 -75.0463
rradius 85.1613 0 0
rwrist -4.29872 0 0
rhand 1.07137 -16.439 0
rfingers 7.12502 0 0
rthumb 26.5501 -763.931 0
885
root 3.78744 16.4665 30.6424 -7.27225 20.0637 359.765
lfemur -20.0871 16.9521 -17.8835
ltibia 42.8305 0 0
lfoot -10.7554 -12.024 0
ltoes 15.9725 0 0
rfemur -41.1064 -7.13689 1.47411
rtibia 70.7764 0 0
rfoot 6.62265 -12.7106 0
rtoes 20.6199 0 0
lowerback 7.8719 -1.85949 -3.85313
upperback 2.11046 -2.81746 -1.68074
thorax -2.10256 -1.39033 0.678553
lowerneck -6.7453 -5.17888 0.0288859
upperneck 6.10716 -7.24708 4.18266
head 3.37223 -3.42175 0.992534
lclavicle 1.62409e-14 -3.0254e-15 0
lhumerus -44.8936 -30.6546 97.0748
lradius 58.4873 0 0
lwrist 17.2872 0 0
lhand 19.9895 11.3346 0
lfingers 7.12502 0 0
lthumb 44.3786 33.897 0
rclavicle 1.62409e-14 -3.0254e-15 0
rhumerus -47.1934 7.20095 -76.0238
rradius 86.6699 0 0
rwrist -4.54153 0 0
rhand 1.72485 -15.8408 0
rfingers 7.12502 0 0
rthumb 27.1752 -763.237 0
886
root 3.77851 16.4612 30.7045 -6.93166 20.1564 359.801
lfemur -20.4075 17.4308 -17.8228
ltibia 43.2036 0 0
lfoot -11.0222 -11.3847 0
ltoes 15.6514 0 0
rfemur -40.3201 -7.40871 1.32845
rtibia 71.2245 0 0
rfoot 6.54015 -13.2489 0
rtoes 21.6237 0 0
lowerback 7.65402 -1.87936 -3.83021
upperback 2.0198 -2.83506 -1.70851
thorax -2.07791 -1.39888 0.632569
lowerneck -6.75979 -5.25792 -0.0733778
upperneck 6.01889 -7.34313 4.22747
head 3.35296 -3.47168 1.02011
lclavicle 1.60606e-14 -2.32723e-15 0
lhumerus -45.257 -31.0551 97.7858
lradius 58.6231 0 0
lwrist 17.047 0 0
lhand 20.5501 11.6386 0
lfingers 7.12502 0 0
lthumb 44.9008 34.0023 0
rclavicle 1.60606e-14 -2.32723e-15 0
rhumerus -47.0796 7.49394 -77.0013
rradius 88.1786 0 0
rwrist -4.78433 0 0
rhand 2.37833 -15.2426 0
rfingers 7.12502 0 0
rthumb 27.8002 -762.544 0
887
root 3.76957 16.4559 30.7666 -6.59106 20.2491 359.838
lfemur -20.7279 17.9095 -17.762
ltibia 43.5767 0 0
lfoot -11.2891 -10.7455 0
ltoes 15.3304 0 0
rfemur -39.5339 -7.68054 1.18279
rtibia 71.6726 0 0
rfoot 6.45764 -13.7871 0
rtoes 22.6275 0 0
lowerback 7.43614 -1.89923 -3.80729
upperback 1.92914 -2.85266 -1.73628
thorax -2.05325 -1.40742 0.586585
lowerneck -6.77429 -5.33696 -0.175641
upperneck 5.93063 -7.43918 4.27227
head 3.33369 -3.52162 1.04769
lclavicle 1.58803e-14 -1.62906e-15 0
lhumerus -45.6204 -31.4556 98.4969
lradius 58.7589 0 0
lwrist 16.8068 0 0
lhand 21.1107 11.9425 0
lfingers 7.12502 0 0
lthumb 45.4231 34.1076 0
rclavicle 1.58803e-14 -1.62906e-15 0
rhumerus -46.9658 7.78692 -77.9788
rradius 89.6872 0 0
rwrist -5.02713 0 0
rhand 3.03181 -14.6444 0
rfingers 7.12502 0 0
rthumb 28.4253 -761.85 0
888
root 3.76064 16.4506 30.8287 -6.25047 20.3418 359.874
lfemur -21.0482 18.3881 -17.7012
ltibia 43.9498 0 0
lfoot -11.556 -10.1062 0
ltoes 15.0093 0 0
rfemur -38.7476 -7.95236 1.03714
rtibia 72.1208 0 0
rfoot 6.37514 -14.3253 0
rtoes 23.6312 0 0
lowerback 7.21826 -1.9191 -3.78438
upperback 1.83847 -2.87025 -1.76405
thorax -2.02859 -1.41597 0.5406
lowerneck -6.78879 -5.416 -0.277905
upperneck 5.84237 -7.53523 4.31707
head 3.31442 -3.57156 1.07527
lclavicle 1.57e-14 -9.30886e-16 0
lhumerus -45.9837 -31.8561 99.208
lradius 58.8947 0 0
lwrist 16.5666 0 0
lhand 21.6713 12.2465 0
lfingers 7.12502 0 0
lthumb 45.9453 34.2129 0
rclavicle 1.57e-14 -9.30886e-16 0
rhumerus -46.8519 8.07991 -78.9563
rradius 91.1958 0 0
rwrist -5.26993 0 0
rhand 3.68529 -14.0462 0
rfingers 7.12502 0 0
rthumb 29.0503 -761.157 0
889
root 3.7517 16.4453 30.8908 -5.90988 20.4345 359.91
lfemur -21.3686 18.8668 -17.6404
ltibia 44.3229 0 0
lfoot -11.8228 -9.46693 0
ltoes 14.6882 0 0
rfemur -37.9614 -8.22418 0.891479
rtibia 72.5689 0 0
rfoot 6.29263 -14.8635 0
rtoes 24.635 0 0
lowerback 7.00039 -1.93897 -3.76146
upperback 1.74781 -2.88785 -1.79182
thorax -2.00394 -1.42451 0.494616
lowerneck -6.80329 -5.49504 -0.380169
upperneck 5.75411 -7.63127 4.36187
head 3.29515 -3.62149 1.10284
lclavicle 1.55197e-14 -2.32717e-16 0
lhumerus -46.3471 -32.2566 99.919
lradius 59.0305 0 0
lwrist 16.3264 0 0
lhand 22.2319 12.5504 0
lfingers 7.12502 0 0
lthumb 46.4675 34.3182 0
rclavicle 1.55197e-14 -2.32717e-16 0
rhumerus -46.7381 8.3729 -79.9338
rradius 92.7044 0 0
rwrist -5.51274 0 0
rhand 4.33877 -13.4479 0
rfingers 7.12502 0 0
rthumb 29.6754 -760.463 0
890
root 3.74277 16.44 30.9529 -5.56928 20.5272 359.947
lfemur -21.689 19.3455 -17.5796
ltibia 44.696 0 0
lfoot -12.0897 -8.82765 0
ltoes 14.3672 0 0
rfemur -37.1752 -8.49601 0.745822
rtibia 73.017 0 0
rfoot 6.21013 -15.4017 0
rtoes 25.6388 0 0
lowerback 6.78251 -1.95884 -3.73854
upperback 1.65714 -2.90545 -1.81959
thorax -1.97928 -1.43306 0.448632
lowerneck -6.81779 -5.57408 -0.482432
upperneck 5.66585 -7.72732 4.40667
head 3.27588 -3.67143 1.13042
lclavicle 1.53394e-14 4.65453e-16 0
lhumerus -46.7104 -32.6571 100.63
lradius 59.1663 0 0
lwrist 16.0862 0 0
lhand 22.7924 12.8544 0
lfingers 7.12502 0 0
lthumb 46.9898 34.4235 0
rclavicle 1.53394e-14 4.65453e-16 0
rhumerus -46.6243 8.66588 -80.9113
rradius 94.213 0 0
rwrist -5.75554 0 0
rhand 4.99225 -12.8497 0
rfingers 7.12502 0 0
rthumb 30.3004 -759.77 0
891
root 3.73384 16.4347 31.015 -5.22869 20.6199 359.983
lfemur -22.0094 19.8242 -17.5189
ltibia 45.0692 0 0
lfoot -12.3566 -8.18838 0
ltoes 14.0461 0 0
rfemur -36.3889 -8.76783 0.600165
rtibia 73.4651 0 0
rfoot 6.12762 -15.9399 0
rtoes 26.6426 0 0
lowerback 6.56463 -1.97871 -3.71562
upperback 1.56648 -2.92305 -1.84736
thorax -1.95463 -1.44161 0.402648
lowerneck -6.83228 -5.65312 -0.584696
upperneck 5.57759 -7.82337 4.45147
head 3.25661 -3.72136 1.158
lclavicle 1.51591e-14 1.16362e-15 0
lhumerus -47.0738 -33.0576 101.341
lradius 59.3021 0 0
lwrist 15.846 0 0
lhand 23.353 13.1583 0
lfingers 7.12502 0 0
lthumb 47.512 34.5287 0
rclavicle 1.51591e-14 1.16362e-15 0
rhumerus -46.5105 8.95887 -81.8888
rradius 95.7216 0 0
rwrist -5.99834 0 0
rhand 5.64573 -12.2515 0
rfingers 7.12502 0 0
rthumb 30.9255 -759.077 0
892
root 3.7249 16.4294 31.0771 -4.8881 20.7126 360.019
lfemur -22.3297 20.3028 -17.4581
ltibia 45.4423 0 0
lfoot -12.6234 -7.54911 0
ltoes 13.725 0 0
rfemur -35.6027 -9.03965 0.454508
rtibia 73.9133 0 0
rfoot 6.04512 -16.4781 0
rtoes 27.6464 0 0
lowerback 6.34675 -1.99858 -3.6927
upperback 1.47581 -2.94064 -1.87513
thorax -1.92997 -1.45015 0.356663
lowerneck -6.84678 -5.73216 -0.68696
upperneck 5.48933 -7.91942 4.49627
head 3.23734 -3.7713 1.18558
lclavicle 1.49788e-14 1.86179e-15 0
lhumerus -47.4372 -33.4581 102.052
lradius 59.4379 0 0
lwrist 15.6058 0 0
lhand 23.9136 13.4623 0
lfingers 7.12502 0 0
lthumb 48.0342 34.634 0
rclavicle 1.49788e-14 1.86179e-15 0
rhumerus -46.3966 9.25185 -82.8663
rradius 97.2302 0 0
rwrist -6.24114 0 0
rhand 6.29921 -11.6533 0
rfingers 7.12502 0 0
rthumb 31.5505 -758.383 0
893
root 3.71597 16.424 31.1392 -4.5475 20.8053 360.056
lfemur -22.6501 20.7815 -17.3973
ltibia 45.8154 0 0
lfoot -12.8903 -6.90984 0
ltoes 13.4039 0 0
rfemur -34.8165 -9.31147 0.308851
rtibia 74.3614 0 0
rfoot 5.96261 -17.0164 0
rtoes 28.6502 0 0
lowerback 6.12887 -2.01845 -3.66978
upperback 1.38515 -2.95824 -1.9029
thorax -1.90532 -1.4587 0.310679
lowerneck -6.86128 -5.8112 -0.789223
upperneck 5.40106 -8.01546 4.54108
head 3.21807 -3.82123 1.21315
lclavicle 1.47985e-14 2.55996e-15 0
lhumerus -47.8005 -33.8586 102.763
lradius 59.5738 0 0
lwrist 15.3656 0 0
lhand 24.4742 13.7662 0
lfingers 7.12502 0 0
lthumb 48.5565 34.7393 0
rclavicle 1.47985e-14 2.55996e-15 0
rhumerus -46.2828 9.54484 -83.8438
rradius 98.7389 0 0
rwrist -6.48395 0 0
rhand 6.9527 -11.0551 0
rfingers 7.12502 0 0
rthumb 32.1756 -757.69 0
